<svg width="312" height="72" viewBox="0 0 312 72" fill="none" xmlns="http://www.w3.org/2000/svg">
<g clip-path="url(#clip0_1_3)">
<path d="M76.0395 65.3624L68.9359 67.1142L62.5413 41.1846C62.3581 40.4419 62.8116 39.6914 63.5543 39.5083L67.9684 38.4198C68.7111 38.2366 70.5699 50.777 70.7529 51.5198L76.0395 65.3624Z" fill="#FFE17D"/>
<path d="M52.3548 26.8424L31.1545 44.2519L27.91 41.0073L47.2148 21.7025L52.3548 26.8424Z" fill="#EEF5FF"/>
<path d="M52.3553 26.8431L33.0501 46.1467L30.3945 43.4909L49.6979 24.1857L52.3553 26.8431Z" fill="#DFE9FB"/>
<path d="M65.912 0.608567L45.2713 21.2493C44.7304 21.7902 44.7304 22.6672 45.2713 23.208L52.2704 30.2071C52.8113 30.748 57.3419 25.6209 57.3419 25.6209C57.8828 25.08 57.144 24.1857 57.144 24.1857C56.6031 23.6448 56.5372 21.6767 57.0781 21.1358L69.6757 6.63895C70.487 5.8277 73.2381 4.99655 72.4268 4.1853L68.8501 0.608567C68.0389 -0.202856 66.7235 -0.202856 65.912 0.608567Z" fill="#AA9EA9"/>
<path d="M76.039 65.3619L72.341 66.2743L65.9476 40.3453C65.7676 39.6182 65.0457 39.1681 64.3185 39.3204L67.9681 38.4201C68.7107 38.2365 69.4621 38.6901 69.6457 39.4329L76.039 65.3619Z" fill="#FFD164"/>
<path d="M61.236 38.5553H16.8857C13.0612 38.5553 9.96062 41.6557 9.96062 45.4804V66.6468H62.6208L60.4637 55.0373C60.4638 55.0373 62.0009 38.5553 61.236 38.5553Z" fill="#FFE17D"/>
<path d="M62.6217 39.9401V66.6464H58.2935V39.9401C58.2935 39.1749 57.6721 38.5551 56.9085 38.5551H61.2367C62.0002 38.5551 62.6217 39.1749 62.6217 39.9401Z" fill="#FFD164"/>
<path d="M82.274 72.1865H3.72629C2.89245 72.1865 2.13951 71.6881 1.81387 70.9205L0.167256 67.0397C-0.414089 65.6697 0.591508 64.1507 2.07968 64.1507H83.9204C85.4088 64.1507 83.1076 72.1865 82.274 72.1865Z" fill="#EEF5FF"/>
<path d="M85.8327 67.0394L84.1862 70.9209C83.8607 71.6878 83.1076 72.1864 82.2731 72.1864H77.945C78.7795 72.1864 79.5326 71.6878 79.8581 70.9209L81.5045 67.0394C82.0862 65.67 81.0804 64.1498 79.5914 64.1498H83.9196C85.4086 64.15 86.4143 65.67 85.8327 67.0394Z" fill="#DFE9FB"/>
<path d="M57.982 21.568C57.4401 22.1099 57.4401 22.9859 57.982 23.5278L58.4651 24.0126C59.007 24.5528 59.007 25.4288 58.4651 25.9707L54.2287 30.2071C53.6884 30.749 52.8108 30.749 52.2706 30.2071L49.2098 27.1463C49.7517 27.6882 50.6363 27.6796 51.1869 27.129L55.5046 22.8113C56.057 22.2589 56.0656 21.3743 55.5237 20.8324L55.0389 20.3494C54.4987 19.8075 54.5075 18.9229 55.058 18.3705L69.7805 3.64963C70.1908 3.23751 70.4003 2.69915 70.4072 2.16415L72.4275 4.18445C73.2378 4.99638 73.2378 6.31212 72.4275 7.12404L57.982 21.568Z" fill="#9B8E99"/>
<path d="M112.606 56.53C110.968 56.53 109.804 56.2934 109.112 55.8202C108.42 55.3107 108.002 54.6737 107.856 53.9093C107.711 53.1086 107.638 52.2897 107.638 51.4525V23.2808C107.638 22.4801 107.711 21.6975 107.856 20.9332C108.002 20.1688 108.42 19.5501 109.112 19.0769C109.804 18.5673 110.987 18.3125 112.661 18.3125H125.436C127.657 18.3125 129.64 18.8585 131.387 19.9504C133.134 21.006 134.518 22.4255 135.537 24.2089C136.556 25.9924 137.065 27.9215 137.065 29.9962C137.065 30.6877 136.993 31.3975 136.847 32.1254C136.738 32.817 136.538 33.5085 136.246 34.2001C135.992 34.8552 135.664 35.4922 135.264 36.1109C135.882 36.8753 136.41 37.7124 136.847 38.6224C137.284 39.4959 137.611 40.4059 137.83 41.3522C138.048 42.2621 138.157 43.1903 138.157 44.1366C138.121 45.8837 137.775 47.5216 137.12 49.0503C136.501 50.5426 135.628 51.8529 134.499 52.9812C133.371 54.0731 132.079 54.9467 130.623 55.6018C129.167 56.2206 127.62 56.53 125.982 56.53H112.606ZM117.629 46.5388H125.436C125.691 46.5388 126.037 46.5024 126.474 46.4297C126.91 46.3205 127.293 46.0657 127.62 45.6653C127.984 45.2285 128.166 44.5188 128.166 43.536C128.166 43.0265 128.112 42.6079 128.002 42.2803C127.93 41.9164 127.802 41.6434 127.62 41.4614C127.438 41.243 127.22 41.0974 126.965 41.0246C126.747 40.9154 126.474 40.8426 126.146 40.8062C125.855 40.7698 125.527 40.7516 125.163 40.7516H124.454C122.998 40.7516 121.96 40.4423 121.342 39.8235C120.723 39.2047 120.413 38.1128 120.413 36.5477C120.413 35.0554 120.741 34.0181 121.396 33.4357C122.088 32.817 123.198 32.5076 124.727 32.5076H125.382C125.673 32.5076 125.928 32.4894 126.146 32.453C126.364 32.4166 126.528 32.3256 126.637 32.18C126.783 32.0344 126.892 31.8342 126.965 31.5795C127.038 31.2883 127.074 30.9061 127.074 30.4329C127.074 29.5958 126.874 29.0316 126.474 28.7404C126.11 28.4493 125.364 28.3037 124.235 28.3037H117.629V46.5388ZM157.614 57.1851C154.848 57.1851 152.409 56.6392 150.298 55.5472C148.223 54.4189 146.476 52.9448 145.057 51.1249C143.637 49.3051 142.564 47.3032 141.836 45.1193C141.144 42.9355 140.798 40.7698 140.798 38.6224V23.3354C140.798 22.4983 140.871 21.6975 141.017 20.9332C141.162 20.1688 141.581 19.5501 142.272 19.0769C142.964 18.5673 144.147 18.3125 145.821 18.3125C147.496 18.3125 148.678 18.5673 149.37 19.0769C150.062 19.5501 150.48 20.1688 150.626 20.9332C150.771 21.6975 150.844 22.5165 150.844 23.39V38.6224C150.844 39.8235 151.044 41.0792 151.445 42.3895C151.845 43.6998 152.537 44.8282 153.519 45.7745C154.538 46.6844 155.958 47.1394 157.778 47.1394C159.161 47.1394 160.362 46.7936 161.381 46.1021C162.4 45.3741 163.183 44.3732 163.729 43.0993C164.311 41.789 164.602 40.2785 164.602 38.5678V23.0624C164.602 22.2617 164.675 21.5155 164.821 20.824C165.003 20.096 165.44 19.4955 166.131 19.0223C166.823 18.5491 167.987 18.3125 169.625 18.3125C171.3 18.3125 172.464 18.5673 173.119 19.0769C173.811 19.5865 174.23 20.2234 174.375 20.9878C174.521 21.7521 174.594 22.5529 174.594 23.39V38.7316C174.594 40.9154 174.23 43.0993 173.502 45.2831C172.774 47.4306 171.682 49.4143 170.226 51.2341C168.806 53.0176 167.041 54.4553 164.93 55.5472C162.819 56.6392 160.38 57.1851 157.614 57.1851ZM206.085 18.3125C206.776 18.3125 207.432 18.3671 208.05 18.4763C208.669 18.5855 209.179 18.9313 209.579 19.5137C210.016 20.096 210.234 21.097 210.234 22.5165C210.234 23.8996 210.016 24.9005 209.579 25.5193C209.179 26.1016 208.651 26.4474 207.996 26.5566C207.377 26.6658 206.722 26.7204 206.03 26.7204H198.496V51.7255C198.496 52.5262 198.423 53.3088 198.278 54.0731C198.132 54.8011 197.713 55.4016 197.022 55.8748C196.367 56.348 195.202 56.5846 193.528 56.5846C191.926 56.5846 190.78 56.348 190.088 55.8748C189.397 55.3652 188.978 54.7465 188.832 54.0185C188.723 53.2542 188.669 52.4716 188.669 51.6709V26.7204H181.08C180.425 26.7204 179.769 26.6658 179.114 26.5566C178.496 26.411 177.968 26.047 177.531 25.4647C177.131 24.8823 176.93 23.8814 176.93 22.4619C176.93 21.0788 177.131 20.096 177.531 19.5137C177.968 18.9313 178.514 18.5855 179.169 18.4763C179.824 18.3671 180.479 18.3125 181.134 18.3125H206.085ZM241.007 18.3125C241.699 18.3125 242.354 18.3671 242.973 18.4763C243.592 18.5855 244.101 18.9313 244.502 19.5137C244.938 20.096 245.157 21.097 245.157 22.5165C245.157 23.8996 244.938 24.9005 244.502 25.5193C244.101 26.1016 243.573 26.4474 242.918 26.5566C242.299 26.6658 241.644 26.7204 240.953 26.7204H233.418V51.7255C233.418 52.5262 233.346 53.3088 233.2 54.0731C233.055 54.8011 232.636 55.4016 231.944 55.8748C231.289 56.348 230.125 56.5846 228.45 56.5846C226.849 56.5846 225.702 56.348 225.011 55.8748C224.319 55.3652 223.901 54.7465 223.755 54.0185C223.646 53.2542 223.591 52.4716 223.591 51.6709V26.7204H216.002C215.347 26.7204 214.692 26.6658 214.037 26.5566C213.418 26.411 212.89 26.047 212.453 25.4647C212.053 24.8823 211.853 23.8814 211.853 22.4619C211.853 21.0788 212.053 20.096 212.453 19.5137C212.89 18.9313 213.436 18.5855 214.091 18.4763C214.747 18.3671 215.402 18.3125 216.057 18.3125H241.007ZM252.999 56.5846C251.361 56.5846 250.197 56.348 249.505 55.8748C248.814 55.3652 248.395 54.7283 248.249 53.9639C248.104 53.1632 248.031 52.3625 248.031 51.5617V23.3354C248.031 21.4427 248.395 20.1506 249.123 19.4591C249.887 18.7311 251.234 18.3671 253.163 18.3671H273.145C273.983 18.3671 274.765 18.4399 275.493 18.5855C276.257 18.7311 276.876 19.1497 277.349 19.8412C277.859 20.5328 278.114 21.7157 278.114 23.39C278.114 25.0279 277.859 26.1926 277.349 26.8842C276.876 27.5757 276.257 27.9943 275.493 28.1399C274.729 28.2855 273.928 28.3583 273.091 28.3583H258.022V33.2173H268.123C268.96 33.2173 269.706 33.2901 270.361 33.4357C271.016 33.5449 271.544 33.8907 271.944 34.4731C272.345 35.0554 272.545 36.0746 272.545 37.5305C272.545 38.9136 272.345 39.9145 271.944 40.5332C271.544 41.1156 270.998 41.4614 270.306 41.5706C269.615 41.6798 268.85 41.7344 268.013 41.7344H258.022V46.5934H273.145C273.983 46.5934 274.765 46.6662 275.493 46.8118C276.257 46.9574 276.876 47.376 277.349 48.0675C277.859 48.7591 278.114 49.942 278.114 51.6163C278.114 53.2542 277.859 54.4189 277.349 55.1105C276.876 55.802 276.257 56.2206 275.493 56.3662C274.729 56.5118 273.928 56.5846 273.091 56.5846H252.999ZM285.732 56.53C284.094 56.53 282.929 56.2934 282.238 55.8202C281.546 55.3107 281.128 54.6737 280.982 53.9093C280.837 53.1086 280.764 52.3079 280.764 51.5071V23.3354C280.764 22.5347 280.837 21.7521 280.982 20.9878C281.128 20.2234 281.546 19.6047 282.238 19.1315C282.929 18.6219 284.112 18.3671 285.787 18.3671H296.76C298.144 18.3671 299.636 18.6583 301.237 19.2407C302.839 19.7866 304.349 20.642 305.769 21.8067C307.188 22.9714 308.353 24.4273 309.263 26.1744C310.173 27.9215 310.628 29.9962 310.628 32.3984C310.628 34.0727 310.373 35.6378 309.864 37.0937C309.39 38.5496 308.662 39.8781 307.68 41.0792C306.733 42.2439 305.569 43.2813 304.186 44.1912C302.839 45.0647 301.292 45.7563 299.545 46.2659H290.755V51.5617C290.755 52.3625 290.682 53.145 290.536 53.9093C290.391 54.6737 289.972 55.3107 289.281 55.8202C288.589 56.2934 287.406 56.53 285.732 56.53ZM308.608 55.2197C306.97 56.4572 305.678 56.9485 304.732 56.6938C303.785 56.4754 302.766 55.6382 301.674 54.1823L291.628 40.5332L302.984 39.1137L309.754 48.2313C310.482 49.2869 310.937 50.1786 311.119 50.9066C311.338 51.6345 311.247 52.3261 310.846 52.9812C310.446 53.6364 309.7 54.3825 308.608 55.2197ZM290.755 36.3293H296.76C297.088 36.3293 297.47 36.2747 297.907 36.1655C298.38 36.02 298.817 35.8016 299.217 35.5104C299.618 35.1828 299.945 34.7642 300.2 34.2547C300.491 33.7451 300.637 33.1081 300.637 32.3438C300.637 31.5795 300.455 30.9061 300.091 30.3237C299.727 29.705 299.235 29.2318 298.617 28.9042C298.034 28.5403 297.379 28.3583 296.651 28.3583H290.755V36.3293Z" fill="#4A4349"/>
</g>
<defs>
<clipPath id="clip0_1_3">
<rect width="312" height="72" fill="white"/>
</clipPath>
</defs>
</svg>
